<svg width="25" height="25" viewBox="0 0 25 25" fill="none" xmlns="http://www.w3.org/2000/svg">
<path d="M12.5 15.625C14.2259 15.625 15.625 14.2259 15.625 12.5C15.625 10.7741 14.2259 9.375 12.5 9.375C10.7741 9.375 9.375 10.7741 9.375 12.5C9.375 14.2259 10.7741 15.625 12.5 15.625Z" stroke="#A9A9A9" stroke-width="2" stroke-linecap="round" stroke-linejoin="round"/>
<path d="M20.2084 15.625C20.0698 15.9391 20.0284 16.2877 20.0897 16.6256C20.1509 16.9635 20.312 17.2753 20.5522 17.5208L20.6147 17.5833C20.8084 17.7768 20.962 18.0065 21.0669 18.2595C21.1717 18.5124 21.2257 18.7835 21.2257 19.0573C21.2257 19.331 21.1717 19.6021 21.0669 19.855C20.962 20.108 20.8084 20.3377 20.6147 20.5312C20.4212 20.7249 20.1914 20.8786 19.9385 20.9834C19.6856 21.0883 19.4145 21.1422 19.1407 21.1422C18.8669 21.1422 18.5958 21.0883 18.3429 20.9834C18.09 20.8786 17.8602 20.7249 17.6667 20.5312L17.6042 20.4687C17.3587 20.2286 17.0469 20.0675 16.709 20.0062C16.3711 19.9449 16.0226 19.9863 15.7084 20.125C15.4003 20.257 15.1376 20.4763 14.9525 20.7557C14.7674 21.0352 14.6681 21.3627 14.6667 21.6979V21.875C14.6667 22.4275 14.4473 22.9574 14.0566 23.3481C13.6659 23.7388 13.1359 23.9583 12.5834 23.9583C12.0309 23.9583 11.501 23.7388 11.1103 23.3481C10.7196 22.9574 10.5001 22.4275 10.5001 21.875V21.7812C10.492 21.4364 10.3804 21.102 10.1798 20.8215C9.97915 20.541 9.69876 20.3273 9.37508 20.2083C9.0609 20.0696 8.71238 20.0283 8.37447 20.0895C8.03656 20.1508 7.72475 20.3119 7.47925 20.552L7.41675 20.6145C7.22326 20.8082 6.9935 20.9619 6.74058 21.0668C6.48767 21.1716 6.21657 21.2256 5.94279 21.2256C5.66901 21.2256 5.39791 21.1716 5.145 21.0668C4.89208 20.9619 4.66232 20.8082 4.46883 20.6145C4.27513 20.4211 4.12147 20.1913 4.01662 19.9384C3.91178 19.6855 3.85782 19.4144 3.85782 19.1406C3.85782 18.8668 3.91178 18.5957 4.01662 18.3428C4.12147 18.0899 4.27513 17.8601 4.46883 17.6666L4.53133 17.6041C4.77147 17.3586 4.93257 17.0468 4.99384 16.7089C5.05511 16.371 5.01374 16.0225 4.87508 15.7083C4.74304 15.4002 4.52379 15.1374 4.24432 14.9524C3.96485 14.7673 3.63736 14.668 3.30216 14.6666H3.12508C2.57255 14.6666 2.04264 14.4471 1.65194 14.0564C1.26124 13.6657 1.04175 13.1358 1.04175 12.5833C1.04175 12.0308 1.26124 11.5009 1.65194 11.1102C2.04264 10.7195 2.57255 10.5 3.12508 10.5H3.21883C3.56362 10.4919 3.898 10.3803 4.17852 10.1797C4.45903 9.97903 4.6727 9.69864 4.79175 9.37496C4.93041 9.06078 4.97177 8.71226 4.9105 8.37435C4.84923 8.03644 4.68814 7.72463 4.448 7.47913L4.3855 7.41663C4.1918 7.22314 4.03813 6.99337 3.93329 6.74046C3.82845 6.48755 3.77448 6.21645 3.77448 5.94267C3.77448 5.66889 3.82845 5.39779 3.93329 5.14488C4.03813 4.89196 4.1918 4.6622 4.3855 4.46871C4.57898 4.27501 4.80875 4.12134 5.06166 4.0165C5.31458 3.91166 5.58567 3.8577 5.85946 3.8577C6.13324 3.8577 6.40434 3.91166 6.65725 4.0165C6.91016 4.12134 7.13993 4.27501 7.33342 4.46871L7.39592 4.53121C7.64141 4.77135 7.95322 4.93244 8.29114 4.99371C8.62905 5.05498 8.97757 5.01362 9.29175 4.87496H9.37508C9.68317 4.74291 9.94593 4.52366 10.131 4.24419C10.3161 3.96473 10.4154 3.63724 10.4167 3.30204V3.12496C10.4167 2.57243 10.6362 2.04252 11.0269 1.65182C11.4176 1.26112 11.9475 1.04163 12.5001 1.04163C13.0526 1.04163 13.5825 1.26112 13.9732 1.65182C14.3639 2.04252 14.5834 2.57243 14.5834 3.12496V3.21871C14.5848 3.5539 14.6841 3.88139 14.8692 4.16086C15.0542 4.44033 15.317 4.65958 15.6251 4.79163C15.9393 4.93029 16.2878 4.97165 16.6257 4.91038C16.9636 4.84911 17.2754 4.68802 17.5209 4.44788L17.5834 4.38538C17.7769 4.19168 18.0067 4.03801 18.2596 3.93317C18.5125 3.82833 18.7836 3.77436 19.0574 3.77436C19.3312 3.77436 19.6023 3.82833 19.8552 3.93317C20.1081 4.03801 20.3378 4.19168 20.5313 4.38538C20.725 4.57886 20.8787 4.80863 20.9835 5.06154C21.0884 5.31446 21.1423 5.58555 21.1423 5.85933C21.1423 6.13312 21.0884 6.40421 20.9835 6.65713C20.8787 6.91004 20.725 7.13981 20.5313 7.33329L20.4688 7.39579C20.2287 7.64129 20.0676 7.9531 20.0063 8.29101C19.9451 8.62892 19.9864 8.97744 20.1251 9.29163V9.37496C20.2571 9.68305 20.4764 9.94581 20.7558 10.1309C21.0353 10.316 21.3628 10.4153 21.698 10.4166H21.8751C22.4276 10.4166 22.9575 10.6361 23.3482 11.0268C23.7389 11.4175 23.9584 11.9474 23.9584 12.5C23.9584 13.0525 23.7389 13.5824 23.3482 13.9731C22.9575 14.3638 22.4276 14.5833 21.8751 14.5833H21.7813C21.4461 14.5846 21.1187 14.684 20.8392 14.869C20.5597 15.0541 20.3405 15.3169 20.2084 15.625V15.625Z" stroke="#A9A9A9" stroke-width="2" stroke-linecap="round" stroke-linejoin="round"/>
</svg>
